<?xml version="1.0" encoding="utf-8"?>
<!-- Generator: Adobe Illustrator 22.0.1, SVG Export Plug-In . SVG Version: 6.00 Build 0)  -->
<svg version="1.1" id="Layer_1" xmlns="http://www.w3.org/2000/svg" xmlns:xlink="http://www.w3.org/1999/xlink" x="0px" y="0px"
	 viewBox="0 0 232.7 55.2" style="enable-background:new 0 0 232.7 55.2;" xml:space="preserve">
<style type="text/css">
	.st0{fill:none;}
	.st1{fill:#FFFFFF;}
	.st2{fill:none;stroke:#FFFFFF;stroke-width:2.4;stroke-miterlimit:10;}
</style>
<title>Artboard 1</title>
<g id="Layer_1_1_">
	<path class="st0" d="M31.5,18.6c1.1,0,2-1,2-2.1c0-1.1-1-2-2.1-2c-1.1,0-2,0.9-2,2C29.4,17.7,30.3,18.6,31.5,18.6
		C31.5,18.6,31.5,18.6,31.5,18.6z"/>
	<path class="st0" d="M22.7,9.5c0-1.2-0.9-2.2-2-2.2c-1.2,0-2.2,0.9-2.2,2c0,1.2,0.9,2.2,2,2.2c0,0,0.1,0,0.1,0
		C21.8,11.6,22.7,10.7,22.7,9.5z"/>
	<path class="st0" d="M8.6,25.9c-1.1,0-2,1-2,2.1c0,1.1,1,2,2.1,2c1.1,0,2-0.9,2-2C10.7,26.7,9.8,25.8,8.6,25.9
		C8.6,25.8,8.6,25.9,8.6,25.9z"/>
	<path class="st0" d="M32.5,25.9c-1.1,0-2,1-2,2.1c0,1.1,1,2,2.1,2c1.1,0,2-0.9,2-2C34.6,26.7,33.7,25.8,32.5,25.9z"/>
	<path class="st0" d="M9.7,14.5c-1.1,0-2,1-2,2.1c0,1.1,1,2,2.1,2c1.1,0,2-0.9,2-2C11.8,15.4,10.8,14.5,9.7,14.5
		C9.7,14.5,9.7,14.5,9.7,14.5z"/>
	<path class="st0" d="M9.7,14.5c-1.1,0-2,1-2,2.1c0,1.1,1,2,2.1,2c1.1,0,2-0.9,2-2C11.8,15.4,10.8,14.5,9.7,14.5
		C9.7,14.5,9.7,14.5,9.7,14.5z"/>
	<path class="st0" d="M11.2,31.7c-2.1,1.3-4.9,0.7-6.2-1.4c-1.3-2.1-0.7-4.9,1.4-6.2c2.1-1.3,4.9-0.7,6.2,1.4
		c0.5,0.7,0.7,1.6,0.7,2.5c0,0.7-0.2,1.3-0.4,1.9l5.7,4.4v7.6l0.9,2.2V26.3l-7.2-6C10.1,21.7,7.3,21.1,6,19s-0.8-4.9,1.3-6.3
		c2.1-1.4,4.9-0.8,6.3,1.3c0.5,0.7,0.7,1.6,0.7,2.5c0,0.7-0.1,1.3-0.4,1.9l5.5,4.7v-9.3c-2.5-0.7-3.9-3.2-3.2-5.7
		c0.7-2.5,3.2-3.9,5.7-3.2c2.5,0.7,3.9,3.2,3.2,5.7c-0.4,1.6-1.6,2.8-3.2,3.2v9.2l5.4-4.7c-0.3-0.6-0.4-1.2-0.4-1.9
		c0-2.5,2-4.6,4.5-4.7c2.5,0,4.6,2,4.7,4.5s-2,4.6-4.5,4.7c-0.9,0-1.8-0.3-2.6-0.8l-7.1,6v17.9l0.8-2.2v-7.6l5.6-4.4
		c-0.3-0.6-0.4-1.3-0.4-1.9c-0.1-2.5,1.9-4.7,4.5-4.8c2.5-0.1,4.7,1.9,4.8,4.5s-1.9,4.7-4.5,4.8c-0.9,0-1.9-0.2-2.6-0.7l-4.8,3.8
		v6.4h14V2.2h-37v39.7H16v-6.4L11.2,31.7z"/>
	<path class="st0" d="M22.7,9.5c0-1.2-0.9-2.2-2-2.2c-1.2,0-2.2,0.9-2.2,2c0,1.2,0.9,2.2,2,2.2c0,0,0.1,0,0.1,0
		C21.8,11.6,22.7,10.7,22.7,9.5z"/>
	<path class="st0" d="M32.5,30c1.1,0,2-1,2-2.1c0-1.1-1-2-2.1-2c-1.1,0-2,1-2,2.1C30.4,29.1,31.4,30,32.5,30z"/>
	<path class="st0" d="M8.6,25.9c-1.1,0-2,1-2,2.1c0,1.1,1,2,2.1,2c1.1,0,2-0.9,2-2C10.7,26.7,9.8,25.8,8.6,25.9
		C8.6,25.8,8.6,25.9,8.6,25.9z"/>
	<path class="st0" d="M31.5,18.6c1.1,0,2-1,2-2.1c0-1.1-1-2-2.1-2c-1.1,0-2,0.9-2,2C29.4,17.7,30.3,18.6,31.5,18.6
		C31.5,18.6,31.5,18.6,31.5,18.6z"/>
	<path class="st1" d="M28.9,20.3c2.1,1.4,4.9,0.8,6.3-1.3c1.4-2.1,0.8-4.9-1.3-6.3C31.8,11.4,29,12,27.6,14
		c-0.5,0.7-0.7,1.6-0.7,2.5c0,0.7,0.1,1.3,0.4,1.9l-5.4,4.7v-9.2c2.5-0.7,3.9-3.2,3.2-5.7c-0.7-2.5-3.2-3.9-5.7-3.2
		c-2.5,0.7-3.9,3.2-3.2,5.7c0.4,1.6,1.6,2.8,3.2,3.2v9.3l-5.5-4.7c0.3-0.6,0.4-1.2,0.4-1.9c0-2.5-2-4.6-4.5-4.7
		c-2.5,0-4.6,2-4.7,4.5s2,4.6,4.5,4.7c0.9,0,1.8-0.3,2.6-0.8l7.2,6v17.8h2.5V26.3L28.9,20.3z M31.5,14.5c1.1,0,2,1,2,2.1
		c0,1.1-1,2-2.1,2c-1.1,0-2-0.9-2-2C29.4,15.4,30.3,14.5,31.5,14.5C31.5,14.5,31.5,14.5,31.5,14.5z M9.7,18.6c-1.1,0-2-1-2-2.1
		c0-1.1,1-2,2.1-2c1.1,0,2,0.9,2,2C11.8,17.7,10.8,18.6,9.7,18.6C9.7,18.6,9.7,18.6,9.7,18.6z M18.5,9.5c0-1.2,0.9-2.2,2-2.2
		s2.2,0.9,2.2,2s-0.9,2.2-2,2.2c0,0-0.1,0-0.1,0C19.5,11.6,18.5,10.7,18.5,9.5z"/>
	<path class="st1" d="M0,0v44.2h18.5v-9.9l-5.7-4.4c0.3-0.6,0.4-1.3,0.4-1.9c0-2.5-2-4.6-4.5-4.7c-2.5,0-4.6,2-4.7,4.5
		s2,4.6,4.5,4.7c0.9,0,1.8-0.2,2.6-0.7l4.8,3.8v6.4H2.2V2.2h36.9v39.7h-14v-6.4l4.8-3.8c2.1,1.3,4.9,0.7,6.2-1.4s0.7-4.9-1.4-6.2
		c-2.1-1.3-4.9-0.7-6.2,1.4c-0.5,0.7-0.7,1.6-0.7,2.5c0,0.7,0.2,1.3,0.4,1.9l-5.6,4.4v9.9h18.7V0H0z M8.7,30c-1.1,0-2-1-2-2.1
		c0-1.1,1-2,2.1-2c1.1,0,2,1,2,2.1C10.7,29.1,9.8,30,8.7,30L8.7,30z M32.5,25.9c1.1,0,2,1,2,2.1c0,1.1-1,2-2.1,2c-1.1,0-2-0.9-2-2
		C30.4,26.8,31.3,25.9,32.5,25.9C32.5,25.8,32.5,25.8,32.5,25.9L32.5,25.9z"/>
	<path class="st1" d="M139.6,13.2h-4.3V8.8h14.3c7.9,0,10.8,4.5,10.8,9.1c0.1,3.1-1.6,6.1-4.4,7.5c3.8,1.2,6.3,4.7,6.1,8.7
		c0,4.1-2.3,10.1-13.1,10.1h-13.9v-4.4h4.3V13.2z M148.8,23.5c4.8,0,6.1-2.5,6.1-5.3c0-3.5-2.1-5-6.8-5h-3.3v10.3L148.8,23.5z
		 M149,39.7c5.5,0,7.7-2.1,7.7-6c0-2.9-1.5-5.8-7.6-5.8h-4.3v11.8L149,39.7z"/>
	<path class="st1" d="M166.6,23.8h-4.1v-4.3h12.2v4.3h-2.9l5.3,13.6l5.2-13.6H179v-4.3h11.9v4.3h-3.6l-12.2,31.4h-8.2V51h4.9l3-7.3
		L166.6,23.8z"/>
	<path class="st1" d="M192.9,19.6h3.2v-3.8l4.9-4.4v8.2h4.5v4.3H201v14.2c0,2.4,2.1,2.3,4.5,1.5v4.4c-1.2,0.4-2.4,0.6-3.6,0.7
		c-3.4,0-5.8-1.6-5.8-5.8V23.8h-3.2V19.6z"/>
	<path class="st1" d="M212,33.1c0.7,4.8,3.9,7.6,8.4,7.6c3.2,0.1,6.2-1.4,8-4l4.3,1.9c-2.7,4.1-7.4,6.6-12.4,6.4
		c-8,0-13.7-5.4-13.7-13c0-7.1,5.7-13,12.9-13c0,0,0,0,0.1,0c6.8,0,13.1,5.2,13.1,14.2L212,33.1z M227.7,29.5
		c-0.8-3.9-4.1-6.7-8.1-6.8c-3.9,0-6.8,2.7-7.5,6.8H227.7z"/>
	<path class="st1" d="M111.4,22.8h1.9v-2.2l2.9-2.6v4.8h2.7v2.5h-2.7v8.4c0,1.4,1.3,1.3,2.7,0.9V37c-0.7,0.2-1.4,0.4-2.1,0.4
		c-2,0-3.4-0.9-3.4-3.4v-8.8h-1.9V22.8z"/>
	<path class="st1" d="M127.4,22.3c4.2,0,7.7,3.4,7.7,7.6s-3.4,7.7-7.6,7.7s-7.7-3.4-7.7-7.6c0,0,0,0,0,0c-0.1-4.1,3.1-7.5,7.2-7.6
		C127.1,22.3,127.2,22.3,127.4,22.3z M127.4,34.9c2.7,0.2,5.1-1.8,5.3-4.5s-1.8-5.1-4.5-5.3s-5.1,1.8-5.3,4.5c0,0.1,0,0.3,0,0.4
		c-0.1,2.5,1.8,4.7,4.3,4.9C127.2,34.9,127.3,34.9,127.4,34.9L127.4,34.9z"/>
	<path class="st1" d="M55.2,11.8h-4.3V7.4h14.3c7.9,0,10.8,4.5,10.8,9.1c0.1,3.1-1.6,6.1-4.4,7.5c3.8,1.2,6.3,4.7,6.2,8.7
		c0,4.1-2.3,10.1-13.1,10.1H50.8v-4.4h4.3V11.8z M64.4,22.1c4.8,0,6.2-2.5,6.2-5.3c0-3.5-2.1-5.1-6.8-5.1h-3.3v10.3H64.4z
		 M64.6,38.3c5.5,0,7.7-2.1,7.7-6c0-2.9-1.5-5.8-7.6-5.8h-4.3v11.8H64.6z"/>
	<path class="st1" d="M83.8,22.4h-3.9v-4.3h8.8v20.3h3.9v4.3H79.9v-4.3h3.9L83.8,22.4z"/>
	<path class="st1" d="M94.1,18.1h3.2v-3.8l4.9-4.4v8.2h4.5v4.3h-4.5v14.2c0,2.4,2.1,2.3,4.5,1.5v4.4c-1.2,0.4-2.4,0.6-3.6,0.7
		c-3.4,0-5.8-1.6-5.8-5.8V22.4h-3.2V18.1z"/>
	<circle class="st2" cx="85.4" cy="12" r="3.3"/>
</g>
</svg>
