<svg xmlns="http://www.w3.org/2000/svg" viewBox="0 0 288 288"><defs><style>.cls-1,.cls-3{fill:none;}.cls-2{fill:#fff;}.cls-3{stroke:#fff;stroke-miterlimit:10;stroke-width:2.4px;}</style></defs><title>Artboard 1</title><g id="Layer_1" data-name="Layer 1"><path class="cls-1" d="M62.49,143.58a2.05,2.05,0,1,0-2.13-2.05A2.09,2.09,0,0,0,62.49,143.58Z"/><path class="cls-1" d="M53.74,134.5a2.13,2.13,0,1,0-2.13,2.05A2.1,2.1,0,0,0,53.74,134.5Z"/><path class="cls-1" d="M39.64,150.85a2.05,2.05,0,1,0,2.13,2.05A2.09,2.09,0,0,0,39.64,150.85Z"/><path class="cls-1" d="M63.52,150.85a2.05,2.05,0,1,0,2.12,2.05A2.09,2.09,0,0,0,63.52,150.85Z"/><path class="cls-1" d="M40.66,139.48a2.05,2.05,0,1,0,2.13,2.05A2.09,2.09,0,0,0,40.66,139.48Z"/><path class="cls-1" d="M40.66,139.48a2.05,2.05,0,1,0,2.13,2.05A2.09,2.09,0,0,0,40.66,139.48Z"/><path class="cls-1" d="M42.17,156.69a4.52,4.52,0,1,1,2.09-3.79,4.4,4.4,0,0,1-.44,1.92l5.65,4.45v7.63l.9,2.24V151.33l-7.15-6a4.52,4.52,0,1,1,2.06-3.77,4.34,4.34,0,0,1-.43,1.9l5.52,4.73v-9.29a4.62,4.62,0,1,1,2.49,0v9.23l5.44-4.67a4.48,4.48,0,0,1-.43-1.9,4.61,4.61,0,1,1,2.06,3.77l-7.07,6v17.87l.82-2.24v-7.63l5.64-4.45a4.55,4.55,0,0,1-.44-1.92A4.61,4.61,0,1,1,61,156.69l-4.8,3.78v6.43h14V127.21H33.23V166.9H47v-6.43Z"/><path class="cls-1" d="M53.74,134.5a2.13,2.13,0,1,0-2.13,2.05A2.1,2.1,0,0,0,53.74,134.5Z"/><path class="cls-1" d="M63.52,155a2.05,2.05,0,1,0-2.13-2A2.09,2.09,0,0,0,63.52,155Z"/><path class="cls-1" d="M39.64,150.85a2.05,2.05,0,1,0,2.13,2.05A2.09,2.09,0,0,0,39.64,150.85Z"/><path class="cls-1" d="M62.49,143.58a2.05,2.05,0,1,0-2.13-2.05A2.09,2.09,0,0,0,62.49,143.58Z"/><path class="cls-2" d="M59.93,145.3a4.52,4.52,0,1,0-2.06-3.77,4.48,4.48,0,0,0,.43,1.9l-5.44,4.67v-9.23a4.62,4.62,0,1,0-2.49,0v9.29l-5.52-4.73a4.34,4.34,0,0,0,.43-1.9,4.61,4.61,0,1,0-2.06,3.77l7.15,6v17.81h2.49V151.27Zm2.56-5.82a2.05,2.05,0,1,1-2.13,2.05A2.09,2.09,0,0,1,62.49,139.48Zm-21.83,4.1a2.05,2.05,0,1,1,2.13-2.05A2.09,2.09,0,0,1,40.66,143.58Zm8.83-9.08a2.13,2.13,0,1,1,2.12,2.05A2.09,2.09,0,0,1,49.49,134.5Z"/><path class="cls-2" d="M31,125v44.17H49.47v-9.87l-5.65-4.45a4.4,4.4,0,0,0,.44-1.92,4.61,4.61,0,1,0-2.09,3.79L47,160.47v6.43H33.23V127.21H70.17V166.9h-14v-6.43l4.8-3.78a4.52,4.52,0,1,0-2.09-3.79,4.55,4.55,0,0,0,.44,1.92l-5.64,4.45v9.87H72.41V125Zm8.65,30a2.05,2.05,0,1,1,2.13-2A2.09,2.09,0,0,1,39.64,155Zm23.88-4.1a2.05,2.05,0,1,1-2.13,2.05A2.09,2.09,0,0,1,63.52,150.85Z"/><path class="cls-2" d="M170.55,138.21h-4.33v-4.43h14.34c7.87,0,10.84,4.53,10.84,9.12a8,8,0,0,1-4.38,7.51,8.75,8.75,0,0,1,6.15,8.7c0,4.07-2.29,10.06-13.08,10.06H166.22v-4.43h4.33Zm9.28,10.32c4.79,0,6.15-2.5,6.15-5.27,0-3.49-2.09-5-6.78-5h-3.33v10.32Zm.21,16.21c5.52,0,7.66-2.13,7.66-6,0-2.92-1.51-5.79-7.56-5.79h-4.27v11.78Z"/><path class="cls-2" d="M197.55,148.84h-4.12v-4.27h12.2v4.27h-2.92L208,162.45l5.21-13.61H210v-4.27H221.9v4.27h-3.65l-12.2,31.39h-8.24V176h4.85l3-7.25Z"/><path class="cls-2" d="M223.92,144.57h3.18v-3.81l4.9-4.43v8.24h4.54v4.27H232v14.23c0,2.4,2.14,2.3,4.54,1.46v4.38a12.37,12.37,0,0,1-3.6.68c-3.44,0-5.84-1.56-5.84-5.84V148.84h-3.18Z"/><path class="cls-2" d="M243,158.07c.73,4.8,3.86,7.56,8.45,7.56a9.58,9.58,0,0,0,8-4l4.28,1.88a14.2,14.2,0,0,1-12.36,6.41c-8,0-13.71-5.42-13.71-13a12.93,12.93,0,0,1,12.93-13c6.83,0,13.14,5.21,13.14,14.23Zm15.74-3.55a8.38,8.38,0,0,0-8.08-6.77c-3.85,0-6.77,2.66-7.5,6.77Z"/><path class="cls-2" d="M142.4,147.76h1.87v-2.23l2.87-2.6v4.83h2.66v2.51h-2.66v8.35c0,1.41,1.26,1.34,2.66.85V162a7.09,7.09,0,0,1-2.11.4c-2,0-3.42-.92-3.42-3.42v-8.75H142.4Z"/><path class="cls-2" d="M158.37,147.33a7.65,7.65,0,1,1-7.62,7.65A7.43,7.43,0,0,1,158.37,147.33Zm0,12.54a4.91,4.91,0,1,0-4.53-4.89A4.62,4.62,0,0,0,158.34,159.87Z"/><path class="cls-2" d="M86.17,136.79H81.84v-4.43H96.18c7.87,0,10.84,4.53,10.84,9.12a8,8,0,0,1-4.38,7.51,8.76,8.76,0,0,1,6.15,8.71c0,4.06-2.29,10.06-13.08,10.06H81.84v-4.43h4.33Zm9.28,10.32c4.79,0,6.15-2.5,6.15-5.26,0-3.5-2.09-5.06-6.78-5.06H91.49v10.32Zm.2,16.22c5.53,0,7.67-2.14,7.67-6,0-2.92-1.51-5.79-7.56-5.79H91.49v11.79Z"/><path class="cls-2" d="M114.84,147.42h-3.91v-4.27h8.81v20.33h3.91v4.28H110.93v-4.28h3.91Z"/><path class="cls-2" d="M125.1,143.15h3.18v-3.81l4.91-4.43v8.24h4.53v4.27h-4.53v14.24c0,2.39,2.13,2.29,4.53,1.46v4.38a12.69,12.69,0,0,1-3.6.67c-3.44,0-5.84-1.56-5.84-5.83V147.42H125.1Z"/><circle class="cls-3" cx="116.44" cy="137.02" r="3.33"/></g></svg>